<?xml version="1.0" encoding="UTF-8" standalone="no" ?>
<!DOCTYPE svg PUBLIC "-//W3C//DTD SVG 1.1//EN" "http://www.w3.org/Graphics/SVG/1.1/DTD/svg11.dtd">
<svg xmlns="http://www.w3.org/2000/svg" xmlns:xlink="http://www.w3.org/1999/xlink" version="1.1" width="80" height="80" viewBox="0 0 1080 1080" xml:space="preserve">
<desc>Created with Fabric.js 5.2.4</desc>
<defs>
</defs>
<g transform="matrix(1 0 0 1 540 540)" id="75f0c883-bb74-4959-88b2-e276a512b3d8"  >
<rect style="stroke: none; stroke-width: 1; stroke-dasharray: none; stroke-linecap: butt; stroke-dashoffset: 0; stroke-linejoin: miter; stroke-miterlimit: 4; fill: rgb(255,255,255); fill-rule: nonzero; opacity: 1; visibility: hidden;" vector-effect="non-scaling-stroke"  x="-540" y="-540" rx="0" ry="0" width="1080" height="1080" />
</g>
<g transform="matrix(1 0 0 1 540 540)" id="f86ce066-cb60-4f0b-beb4-6a52cd896311"  >
</g>
<g transform="matrix(45 0 0 45 540 540)"  >
<path style="stroke: none; stroke-width: 1; stroke-dasharray: none; stroke-linecap: butt; stroke-dashoffset: 0; stroke-linejoin: miter; stroke-miterlimit: 4; fill: rgb(255,255,255); fill-rule: nonzero; opacity: 1;"  transform=" translate(-12, -12)" d="M 19 5 L 19 7 L 15 7 L 15 5 L 19 5 M 9 5 L 9 11 L 5 11 L 5 5 L 9 5 M 19 13 L 19 19 L 15 19 L 15 13 L 19 13 M 9 17 L 9 19 L 5 19 L 5 17 L 9 17 M 21 3 L 13 3 L 13 9 L 21 9 L 21 3 M 11 3 L 3 3 L 3 13 L 11 13 L 11 3 M 21 11 L 13 11 L 13 21 L 21 21 L 21 11 M 11 15 L 3 15 L 3 21 L 11 21 L 11 15 Z" stroke-linecap="round" />
</g>
</svg>